<svg xmlns="http://www.w3.org/2000/svg" viewBox="0 0 48.6 39.6"><path d="M48.6 4.7a19 19 0 0 1-5 5.2v1.3a27.2 27.2 0 0 1-1.2 8 28.4 28.4 0 0 1-3.6 7.7 32.1 32.1 0 0 1-5.7 6.5 24.9 24.9 0 0 1-7.9 4.5 30.8 30.8 0 0 1-9.9 1.7A27.9 27.9 0 0 1 0 35.1h2.4a19.4 19.4 0 0 0 12.3-4.3 9.5 9.5 0 0 1-5.8-2A9.5 9.5 0 0 1 5.4 24l1.9.2a7.5 7.5 0 0 0 2.6-.4 10 10 0 0 1-8-9.8 10.2 10.2 0 0 0 4.5 1.3 8.6 8.6 0 0 1-3.2-3.6 11.3 11.3 0 0 1-1.1-4.8 10.3 10.3 0 0 1 1.4-5.1 28.3 28.3 0 0 0 9.1 7.4A28.1 28.1 0 0 0 24 12.3a9 9 0 0 1-.2-2.3 9.9 9.9 0 0 1 16.9-7.1l.3.3A20.1 20.1 0 0 0 47.3.8a9.6 9.6 0 0 1-4.4 5.5 18.6 18.6 0 0 0 5.7-1.6z"/></svg>