<svg xmlns="http://www.w3.org/2000/svg" viewBox="0 0 14.416 14.241"><path d="M13.983 12.405L11.25 9.818a6.136 6.136 0 0 0 1.141-3.754 6.097 6.097 0 0 0-1.932-4.279C9.262.661 7.713.095 6.067.12a6.097 6.097 0 0 0-4.279 1.933A6.097 6.097 0 0 0 .124 6.444C.175 8.08.861 9.6 2.057 10.724s2.775 1.706 4.391 1.664a6.077 6.077 0 0 0 3.401-1.163l2.774 2.627a.98.98 0 0 0 .695.269h.016a.986.986 0 0 0 .693-.312.995.995 0 0 0-.044-1.404zM3.416 9.277a4.124 4.124 0 0 1-1.307-2.895c-.035-1.106.365-2.16 1.125-2.969S5.023 2.14 6.129 2.105l.046-.001a4.123 4.123 0 0 1 2.923 1.127 4.12 4.12 0 0 1 1.308 2.895 4.155 4.155 0 0 1-4.02 4.277 4.083 4.083 0 0 1-2.97-1.126z" style="fill:#d9d9d4"/></svg>