<svg xmlns="http://www.w3.org/2000/svg" viewBox="0 0 145.2 31.8"><path fill="#c00" d="M0 6h11L1.9 24.8h4.8L16 5.6V1.9H0V6zM33.9 8.3A4.6 4.6 0 0 0 32.2 7a5.9 5.9 0 0 0-2.4-.4l-1.7.2-1.4.5-1.2.9-1 1.2.2-3.2V0h-4.3v24.8h4.3V13.5a15.2 15.2 0 0 1 2.1-2.4 3.1 3.1 0 0 1 2.1-.9q2.2 0 2.2 2.9v11.7h4.3v-12a9 9 0 0 0-.3-2.6 5.4 5.4 0 0 0-1.2-1.9zM54.3 14.3a5.2 5.2 0 0 0-1.5-1.1 7.2 7.2 0 0 0-2-.6 6 6 0 0 0 2.7-2 5.5 5.5 0 0 0 1-3.4 5.7 5.7 0 0 0-.5-2.4A4.8 4.8 0 0 0 52.5 3a7.1 7.1 0 0 0-2.4-1.2 12.3 12.3 0 0 0-3.3-.4h-1.6l-1.5.2-1.4.4-1.5.4V6l2.8-.7 2.7-.3a4.5 4.5 0 0 1 2.8.7 2.6 2.6 0 0 1 .9 2.2 3.8 3.8 0 0 1-.2 1.3 2.6 2.6 0 0 1-.8 1.1 4 4 0 0 1-1.4.7 8 8 0 0 1-2.3.3h-2.4v3.3h2.5l2.5.2a5.6 5.6 0 0 1 1.7.7 2.7 2.7 0 0 1 1.4 2.4 3.6 3.6 0 0 1-.3 1.5 2.9 2.9 0 0 1-1 1.2 5.2 5.2 0 0 1-1.7.7l-2.5.2h-2.8l-2.5-.3v3.7h4.9a19 19 0 0 0 4.7-.5 9.6 9.6 0 0 0 3.3-1.5 6 6 0 0 0 1.9-2 7.2 7.2 0 0 0 .6-3.1 5.3 5.3 0 0 0-.3-2 4.7 4.7 0 0 0-1-1.5zM82.3 12a8.1 8.1 0 0 0-2.8-1.1 17.3 17.3 0 0 0-3.4-.3h-1.6V5.9h9.2v-4H70.5v12.2H75a7.4 7.4 0 0 1 4.1.9 3.2 3.2 0 0 1 1.3 2.8 3.3 3.3 0 0 1-1.4 2.8 6.7 6.7 0 0 1-4 1h-2.6l-2.3-.6v3.7l1.1.2h3.6a15.3 15.3 0 0 0 4-.5 10 10 0 0 0 3.2-1.5 7.1 7.1 0 0 0 2.1-2.4 6.8 6.8 0 0 0 .8-3.3 7 7 0 0 0-.7-3.4 5.7 5.7 0 0 0-1.9-1.8zM103.1 8.3a4.6 4.6 0 0 0-1.7-1.3 5.9 5.9 0 0 0-2.4-.4l-1.7.2-1.4.5-1.2.9-1.1 1.2.2-3.2V0h-4.3v24.8h4.3V13.5a15.2 15.2 0 0 1 2.1-2.4 3.1 3.1 0 0 1 2.1-.9q2.2 0 2.2 2.9v11.7h4.3v-12a9 9 0 0 0-.3-2.6 5.4 5.4 0 0 0-1.1-1.9zM123.3 4.2a6.9 6.9 0 0 0-2.7-2.1 9 9 0 0 0-3.5-.7 9.1 9.1 0 0 0-3.9.8 7.8 7.8 0 0 0-2.9 2.3 11 11 0 0 0-1.8 3.8 18.8 18.8 0 0 0-.6 5.1 19.3 19.3 0 0 0 .7 5.3 10.4 10.4 0 0 0 1.8 3.7 7 7 0 0 0 2.8 2.1 9.7 9.7 0 0 0 7.4-.1 7.9 7.9 0 0 0 2.9-2.3 10.8 10.8 0 0 0 1.8-3.8 19.1 19.1 0 0 0 .6-5.1 19.3 19.3 0 0 0-.7-5.4 10.4 10.4 0 0 0-1.9-3.6zM112.2 14v-.7a16.7 16.7 0 0 1 .4-3.7 8.9 8.9 0 0 1 1-2.6 4.3 4.3 0 0 1 1.4-1.5 3.5 3.5 0 0 1 1.8-.5 3.6 3.6 0 0 1 2.4.8 5.7 5.7 0 0 1 1.6 2.6l-8.6 6.2a5.6 5.6 0 0 1 0-.6zm8.9 3.1a8.7 8.7 0 0 1-1 2.6 4.4 4.4 0 0 1-1.5 1.5 3.5 3.5 0 0 1-1.8.5 3.7 3.7 0 0 1-2.4-.8 5.3 5.3 0 0 1-1.6-2.5l8.6-6.2v1.2a17.1 17.1 0 0 1-.3 3.7zM144.8 11.9a8.6 8.6 0 0 0-1.3-2.9 5.7 5.7 0 0 0-2.1-1.8 6.1 6.1 0 0 0-2.8-.6l-1.8.2-1.5.6-1.3 1-1.1 1.2V7h-3.7v24.8h4.3v-7l1.2.2h1.3a11.4 11.4 0 0 0 3.7-.6 7.8 7.8 0 0 0 2.9-1.8 8.1 8.1 0 0 0 1.9-3 11.8 11.8 0 0 0 .7-4.3 14.6 14.6 0 0 0-.4-3.4zm-4.4 6.4a5.6 5.6 0 0 1-.9 1.9 4.1 4.1 0 0 1-1.4 1.2 4.1 4.1 0 0 1-1.9.4h-1.5l-1.3-.3v-8a15.2 15.2 0 0 1 2.1-2.4 3.1 3.1 0 0 1 2.1-.9 2.7 2.7 0 0 1 1.3.3 2.5 2.5 0 0 1 1 1 5.5 5.5 0 0 1 .6 1.7 12.8 12.8 0 0 1 .2 2.5 9.2 9.2 0 0 1-.3 2.6z"/></svg>